<svg
	width="1544"
	height="1005"
	viewBox="0 0 1544 1005"
	fill="none"
	xmlns="http://www.w3.org/2000/svg"
>
	<g clip-path="url(#clip0_2_5)">
		<path
			d="M514.099 1004.4C511.269 1004.01 501.62 1002.86 492.658 1001.84C436.515 995.471 375.658 977.001 321.863 950.003C178.128 877.866 71.2431 752.372 22.035 597.972C12.8466 569.142 3.76084 526.531 1.17866 500.16L0 488.122L17.6168 480.671C58.5567 463.355 92.9449 454.12 136.693 448.693C157.157 446.154 221.513 445.174 233.843 447.214L240.044 448.24L242.916 465.637C247.543 493.664 258.551 536.64 269.47 569.306C329.185 747.954 453.302 893.501 605.188 962.991C621.558 970.48 654.389 983.123 669.334 987.692C671.622 988.391 671.622 988.638 669.334 989.907C665.843 991.844 638.146 997.694 616.16 1001.14C599.045 1003.82 526.636 1006.13 514.099 1004.4ZM951.503 1003.7C921.532 1000.5 873.38 991.129 873.516 988.534C873.548 987.905 881.46 984.805 891.098 981.644C1039.77 932.889 1175.43 802.018 1248.78 636.571C1274.22 579.189 1292.96 517.477 1302.25 460.508L1304.24 448.276L1310.55 447.232C1323.29 445.125 1387.78 446.138 1408.12 448.764C1446.7 453.747 1483.54 463.208 1515.69 476.392C1526.15 480.682 1536.91 485.09 1539.61 486.187C1544.48 488.165 1544.51 488.266 1543.42 499.331C1542.82 505.464 1540.76 519.359 1538.83 530.21C1512.64 677.705 1425.18 814.591 1300.23 903.658C1228.49 954.801 1148.5 987.533 1063.86 1000.38C1037.76 1004.35 974.862 1006.21 951.503 1003.7ZM752.881 926.885C713.381 891.274 681.857 850.351 649.805 793.08C609.779 721.56 582.929 634.785 572.98 544.792C569.954 517.418 569.974 424.333 573.012 398.974C579.094 348.197 586.294 312.699 599.139 270.151C630.373 166.698 686.811 75.5081 759.039 11.7963L772.412 0L777.907 3.86762C787.17 10.3867 832.619 56.7215 844.906 72.1716C940.737 192.677 988.098 360.988 973.793 530.21C961.701 673.254 907.158 803.85 819.391 899.9C807.144 913.303 776.074 942.042 772.598 943.182C771.937 943.399 763.064 936.065 752.881 926.885ZM658.185 925.472C616.546 909.768 562.392 878.403 523.29 847.344C489.212 820.274 447.801 777.196 419.165 739.025C381.744 689.146 346.288 621.706 325.165 560.231C299.364 485.139 288.3 419.992 288.312 343.22C288.324 270.451 298.06 211.975 320.827 147.938L327.131 130.209L335.707 131.3C400.357 139.523 474.97 170.901 539.148 216.857L553.906 227.424L550.662 236.86C517.676 332.797 505.793 457.454 519.347 565.378C536.241 699.905 590.534 829.202 667.168 917.412C673.077 924.213 677.911 930.196 677.911 930.707C677.911 932.438 673.667 931.312 658.185 925.472ZM870.045 926.848C872.393 923.944 880.174 914.377 887.338 905.588C978.158 794.15 1031.16 635.048 1031.24 473.598C1031.27 394.868 1020.32 321.831 997.438 248.192L991.096 227.788L997.029 222.737C1008.74 212.765 1046.28 188.954 1069 177.083C1114.55 153.284 1166.73 136.081 1208.1 131.217L1217.63 130.097L1223.17 145.309C1231.44 167.98 1240.18 199.102 1244.78 222.278C1268.51 341.614 1256.43 468.277 1210.19 585.059C1160.52 710.51 1079.64 812.107 975.216 880.236C945.865 899.385 899.532 921.663 870.045 930.804L865.777 932.128L870.045 926.848Z"
			fill="url(#paint0_linear_2_5)"
		/>
	</g>
	<defs>
		<linearGradient
			id="paint0_linear_2_5"
			x1="772"
			y1="0"
			x2="772"
			y2="1005"
			gradientUnits="userSpaceOnUse"
		>
			<stop offset="0.5" stop-color="#17E9D9" />
			<stop offset="1" stop-color="#5E7BEB" />
		</linearGradient>
		<clipPath id="clip0_2_5">
			<rect width="1544" height="1005" fill="white" />
		</clipPath>
	</defs>
</svg>
